<svg xmlns="http://www.w3.org/2000/svg" xmlns:xlink="http://www.w3.org/1999/xlink" viewBox="0 0 500 500"><style>
@keyframes orbit {
  from {
    transform: rotate(0deg);
  }
  to {
    transform: rotate(360deg);
  }
}
@keyframes orbitReverse {
  from {
    transform: rotate(0deg);
  }
  to {
    transform: rotate(-360deg);
  }
}
#orbital {
  transform-origin: 254.25px 196.67px;
  animation: orbit 45s linear infinite;
}
</style><defs><clipPath id="freepik--clip-path--inject-31"><path d="M394.05,350l.07-8.2L292.07,317l-177.7,59.46V385a1.74,1.74,0,0,0,.39,1.13,2.64,2.64,0,0,0,1.17.79l99.9,41.23a10.84,10.84,0,0,0,2.54.65,17.54,17.54,0,0,0,5.84-.15,11.64,11.64,0,0,0,2.56-.79L392.86,352a1.66,1.66,0,0,0,.84-.66A2,2,0,0,0,394.05,350Z" style="fill:#fff;stroke:#263238;stroke-miterlimit:10"></path></clipPath><clipPath id="freepik--clip-path-2--inject-31"><circle cx="254.25" cy="196.67" r="108.67" transform="translate(-64.6 237.38) rotate(-45)" style="fill:#fff;stroke:#263238;stroke-miterlimit:10"></circle></clipPath><clipPath id="freepik--clip-path-3--inject-31"><path d="M250.34,146.36,260.66,151l2.83,4.64,4.65,1.81.51,4.9-1.8,2.84-3.61.77-7.74-3.1v-1l4.38-1.8-1.55-5.42-7-2.58-3.09-4.12Zm65,119.15-8.25-3.35L297,258.55h-8L281.55,257l-8.26,1.81-4.64.25h-2.84l-5.41,3.1-5.16,2.06-7-4.38,1.8-7.22-4.38-1.81h-5.16l-.77-2.32.51-4.64-1.8-2.58-3.61.51-1,2.58-4.38.26L225.58,240,224,233.79l3.87-7.22,7.48.51,2.06,1.81h3.1l3.87-2.32,3.35,1,4.64,8,1.81-.25-.52-5.94-1.54-3.09.51-4.9,9.54-4.13,1.29-9.54,4.13-3.35,3.35-5.93,2.58-.52,5.93-3.87.26-2.06-4.13.26-.77-2.07H272l-4.38,1,2.06-3.35,9-2.58,2.06-2.32,3.61,5.67,2.33,2.33,3.61-1-1.55-3.35-5.42-3.87-6.19-7-6.45-4.39-6.19-1-3.09-3.09-4.13-1-.51,1-.52,7.48,1,2.58L255,185.56l-5.16-4.13.78-3.61-5.42-2.58-2.32-2.83,1.29-6.45,7.48-5.42.52-6.19-2.84.26-1.81-2.32-.77-3.87-1.81-.26-1,4.13-2.83.52-1.29-9-2.07-1.29-3.61-1.55L230,143l5.15,4.91,1,4.38-9.28-7-6.45-7-.51-7-6.71-2.06L208,132.69a38.83,38.83,0,0,1-3.87,2.06,42.49,42.49,0,0,1-6.19,1l-1,4.39-5.93.26.52,2.83,9.54,1.55,4.9,5.42v9l-2.84,8,.52,8.51-7.22,12.64-1.55,18.82,2.32,10.84,3.35,8.25,3.87.52-1.29-4.13-2.06-3.1-1.29-5.67,2.32-.52,3.61,9.29L208.3,231v6.71l4.9,5.93L222,250l13.41,3.61,4.13,3.87,3.09,4.12,4.64,2.84,5.68,1.55,5.67-.26s-.26,2.58-.26,3.87-3.61,5.67-3.61,5.67l-2.83,5.16,2.06,5.67,5.67,2.33,8,8.25,3.61,1.55v3.86l.45,1.81a108.27,108.27,0,0,0,54.09-25.47l.14-1.87,7-12.64-3.35-2.32Zm26.83-101.87-2.84-4.9-3.61-5.68-1-7.73,4.64.77.26-2.58-3.36-.26,2.84-1.29,3.1-1.8v-2.58l-3.1-4.13-.66-5.55A108.77,108.77,0,0,0,210.86,97l5.95,4.21-3.61,4.65-4.9,1-.52,7-2.06.77-2.58,2.84.26,4.64,4.38.52L206,127h4.38l7.48-9.54.78-4.12,7.22-.52,1.8-3.1,7.48-.77.78-4.38,5.41-.26s3.87-2.06,4.65-2.06a31.7,31.7,0,0,1,4.38,1.28l3.87,3.1h5.41l4.65-2.84,5.93.52a6.39,6.39,0,0,0,2.84,1c1.29,0,5.15-1.81,5.15-1.81l7.48,4.65,3.1,2.32v3.87l3.87.51,1.29-2.32,3.35,1.55-.26,2.06-7.74,2.07,4.39,5.67,9.28,5.16,3.87,5.16,5.68.51,1.29-2.58,2.06-.51-6.71-5.16L305,126l3.35-1-3.1-4.38,4.39-.26,5.67,3.09,1.29,6.19,2.84,3.36,2.32,7.48,5.67,4.12v8.51l5.94,3.87-.26,2.84-.78,3.35,1.55,4.64.52,2.33,4.38.77,2.07-4.39Zm3.35-26v1.48l-1.29,4.12.77,3.61,2.84,1v4.9l-3.1-1.29L344,165.44l-3.09,5.68,2.06,7.22,3.35,3.09v13.93l3.35,10.83,3.62,8.26,5.93,1.54,2.06-5.16.84-.65a109.63,109.63,0,0,0,.84-13.51A108.14,108.14,0,0,0,345.51,137.66ZM285.93,136l-17-7.48-7.48.26-1.81,4.9-3.09-3.35-5.67,1.29-.52,8.51,4.64,3.35,3.35-4.9,3.87,3.87,8,7,1.55,7.48,6.7,8.51,10.83-1.8-.25-3.87-2.32-4.39-.52-10.31,2.58-4.39Zm13.93,5.68-3.87-1-3.35,2.84,1.8,7.48h3.36Zm24,4.9L315.08,142l-1.81-3.09-2.06.77,1.8,5.16,1.55,6.71,3.87,1.54.77-1-2.32-3.87,6.71,2.58Zm-75.31,93.1-1,1,7.74,2.32,3.09,3.61,4.91.52,1.8-2.84-5.93-1Zm23,4.9-5.42,1.55.78,2.06h6.7l1.29-2.06-2.32.26Z" style="fill:#FAC1B5;stroke:#263238;stroke-miterlimit:10"></path></clipPath><filter id="lglow" x="-30%" y="-30%" width="160%" height="160%"><feGaussianBlur in="SourceGraphic" stdDeviation="2.5" result="blur"/><feMerge><feMergeNode in="blur"/><feMergeNode in="SourceGraphic"/></feMerge></filter></defs><g id="freepik--background-simple--inject-31"><path d="M431.8,261.49c4.11-27,1.17-54.8-6-81-6.44-23.51-14.56-47.65-33.46-64.16-22.9-20-51.49-22.61-80.51-19.22C254.4,103.8,238,79.2,195.51,80.69s-79.76,19.38-91.69,55.91,6.71,74.55-2.24,96.16S67.29,276,82.2,307.31,129.91,363.22,206,369.18s142.38,8.95,185.62-30.56C415,317.21,427.42,290.23,431.8,261.49Z" style="fill:#FAC1B5"></path><path d="M431.8,261.49c4.11-27,1.17-54.8-6-81-6.44-23.51-14.56-47.65-33.46-64.16-22.9-20-51.49-22.61-80.51-19.22C254.4,103.8,238,79.2,195.51,80.69s-79.76,19.38-91.69,55.91,6.71,74.55-2.24,96.16S67.29,276,82.2,307.31,129.91,363.22,206,369.18s142.38,8.95,185.62-30.56C415,317.21,427.42,290.23,431.8,261.49Z" style="fill:#fff;opacity:0.7000000000000001"></path></g><g id="freepik--Device--inject-31"><path d="M394.05,350l.07-8.2L292.07,317l-177.7,59.46V385a1.74,1.74,0,0,0,.39,1.13,2.64,2.64,0,0,0,1.17.79l99.9,41.23a10.84,10.84,0,0,0,2.54.65,17.54,17.54,0,0,0,5.84-.15,11.64,11.64,0,0,0,2.56-.79L392.86,352a1.66,1.66,0,0,0,.84-.66A2,2,0,0,0,394.05,350Z" style="fill:#fff"></path><g style="clip-path:url(#freepik--clip-path--inject-31)"><path d="M393.7,351.36a2,2,0,0,0,.35-1.33l.07-8.2L292.07,317l-68.76,23v88.76c.3,0,.61-.08.9-.14a11.64,11.64,0,0,0,2.56-.79L392.86,352A1.66,1.66,0,0,0,393.7,351.36Z" style="opacity:0.2"></path><path d="M220.56,429.13V415.36h-3.48V428.7A11,11,0,0,0,220.56,429.13Z" style="opacity:0.2"></path></g><path d="M394.05,350l.07-8.2L292.07,317l-177.7,59.46V385a1.74,1.74,0,0,0,.39,1.13,2.64,2.64,0,0,0,1.17.79l99.9,41.23a10.84,10.84,0,0,0,2.54.65,17.54,17.54,0,0,0,5.84-.15,11.64,11.64,0,0,0,2.56-.79L392.86,352a1.66,1.66,0,0,0,.84-.66A2,2,0,0,0,394.05,350Z" style="fill:none;stroke:#263238;stroke-miterlimit:10"></path><path d="M341.84,331.61l-13.07-3.31a3.45,3.45,0,0,0-.59-.1c-.21,0-.43,0-.64,0a5.6,5.6,0,0,0-.6.05,2.93,2.93,0,0,0-.49.12.66.66,0,0,0-.29.18.2.2,0,0,0,0,.19.44.44,0,0,0,.21.19,1.57,1.57,0,0,0,.44.16l13.07,3.34a5.55,5.55,0,0,0,.61.1l.65,0a5.73,5.73,0,0,0,.61-.06,2.51,2.51,0,0,0,.49-.12.75.75,0,0,0,.28-.18.19.19,0,0,0,0-.2.54.54,0,0,0-.22-.2,2.3,2.3,0,0,0-.45-.16" style="fill:#fff"></path><path d="M380.13,342.9l-22.05-5.62h-3.61c-.4,0-.79,0-1.18,0s-.78-.05-1.15-.1-.75-.1-1.11-.16-.69-.14-1-.22l-38.45-9.87-.78-.24c-.24-.09-.45-.18-.64-.27a3.6,3.6,0,0,1-.48-.3,1.44,1.44,0,0,1-.3-.31l-.77-1.12-19.74-5L138.54,371.5l94.88,36.33L380.13,342.9" style="fill:#FAC1B5;stroke:#fff;stroke-miterlimit:10;stroke-width:3px"></path><path d="M394.41,341.13a2.47,2.47,0,0,0-.92-.7,7.82,7.82,0,0,0-1.71-.6l-96.29-24a13.55,13.55,0,0,0-1.84-.31,19.1,19.1,0,0,0-2-.07,15,15,0,0,0-1.94.15,9.5,9.5,0,0,0-1.64.37l-171.4,58.14a7.31,7.31,0,0,0-1.79.85,2.12,2.12,0,0,0-.86.94.91.91,0,0,0,.12.92,2.59,2.59,0,0,0,1.16.8l100.54,40.71a10.83,10.83,0,0,0,2.54.66,17.54,17.54,0,0,0,5.84-.15,11.64,11.64,0,0,0,2.56-.79l166.87-75.56a1.75,1.75,0,0,0,.85-.67A.68.68,0,0,0,394.41,341.13Zm-161,66.7L138.54,371.5l150.32-51.89,19.74,5,.77,1.12a1.44,1.44,0,0,0,.3.31,3.6,3.6,0,0,0,.48.3c.19.09.4.18.64.27l.78.24L350,336.76c.32.08.66.16,1,.22s.73.12,1.11.16.76.08,1.15.1.78,0,1.18,0h3.61l22.05,5.62Zm92.74-79.31a.66.66,0,0,1,.29-.18,2.93,2.93,0,0,1,.49-.12,5.6,5.6,0,0,1,.6-.05c.21,0,.43,0,.64,0a3.45,3.45,0,0,1,.59.1l13.07,3.31a2.3,2.3,0,0,1,.45.16.54.54,0,0,1,.22.2.19.19,0,0,1,0,.2.75.75,0,0,1-.28.18,2.51,2.51,0,0,1-.49.12,5.73,5.73,0,0,1-.61.06l-.65,0a5.55,5.55,0,0,1-.61-.1l-13.07-3.34a1.57,1.57,0,0,1-.44-.16.44.44,0,0,1-.21-.19A.2.2,0,0,1,326.16,328.52ZM180.67,391.66a2.77,2.77,0,0,1-.78.44,6,6,0,0,1-1.13.3,7.46,7.46,0,0,1-1.25.13,8,8,0,0,1-1.22-.06,4.79,4.79,0,0,1-1-.26,1.78,1.78,0,0,1-.65-.41.59.59,0,0,1-.16-.47.84.84,0,0,1,.33-.48,2.54,2.54,0,0,1,.78-.44,6,6,0,0,1,1.13-.3,8.4,8.4,0,0,1,1.24-.12,8,8,0,0,1,1.21.06,4.86,4.86,0,0,1,1,.25,1.69,1.69,0,0,1,.65.4.54.54,0,0,1,.17.47A.82.82,0,0,1,180.67,391.66Z" style="fill:#263238"></path><path d="M180.16,390.3a4.86,4.86,0,0,0-1-.25,8,8,0,0,0-1.21-.06,8.4,8.4,0,0,0-1.24.12,6,6,0,0,0-1.13.3,2.54,2.54,0,0,0-.78.44.84.84,0,0,0-.33.48.59.59,0,0,0,.16.47,1.78,1.78,0,0,0,.65.41,4.79,4.79,0,0,0,1,.26,8,8,0,0,0,1.22.06,7.46,7.46,0,0,0,1.25-.13,6,6,0,0,0,1.13-.3,2.77,2.77,0,0,0,.78-.44.82.82,0,0,0,.31-.49.54.54,0,0,0-.17-.47,1.69,1.69,0,0,0-.65-.4" style="fill:#fff"></path></g><g id="freepik--Lines--inject-31"><line x1="146.79" y1="346.94" x2="149.65" y2="351.78" style="fill:none;stroke:#0d9488;stroke-miterlimit:10"></line><line x1="104.77" y1="275.87" x2="143.56" y2="341.47" style="fill:none;stroke:#0d9488;stroke-miterlimit:10"></line><line x1="179.6" y1="332.92" x2="181.23" y2="336.82" style="fill:none;stroke:#0d9488;stroke-miterlimit:10"></line><line x1="168.49" y1="306.34" x2="177.78" y2="328.56" style="fill:none;stroke:#0d9488;stroke-miterlimit:10"></line><line x1="362.12" y1="272.19" x2="341.68" y2="322.41" style="fill:none;stroke:#0d9488;stroke-miterlimit:10"></line><line x1="367.17" y1="259.8" x2="364.64" y2="265.99" style="fill:none;stroke:#0d9488;stroke-miterlimit:10"></line><line x1="378.51" y1="321.38" x2="374.05" y2="326.29" style="fill:none;stroke:#0d9488;stroke-miterlimit:10"></line><line x1="407.29" y1="289.72" x2="382.97" y2="316.47" style="fill:none;stroke:#0d9488;stroke-miterlimit:10"></line><line x1="161.84" y1="339.59" x2="178.46" y2="371.72" style="fill:none;stroke:#0d9488;stroke-miterlimit:10"></line><line x1="365.74" y1="319.64" x2="347.45" y2="344.57" style="fill:none;stroke:#0d9488;stroke-miterlimit:10"></line><line x1="248.83" y1="319.64" x2="253.26" y2="341.8" style="fill:none;stroke:#0d9488;stroke-miterlimit:10"></line></g><g id="lightning-lines" filter="url(#lglow)"><line x1="149.65" y1="351.78" x2="146.79" y2="346.94" style="fill:none;stroke:#4f8ef7;stroke-width:2;stroke-miterlimit:10;stroke-dasharray:8,9999"><animate attributeName="stroke-dashoffset" from="0" to="-6" dur="2.6s" begin="0s" repeatCount="indefinite" calcMode="linear"/></line><line x1="143.56" y1="341.47" x2="104.77" y2="275.87" style="fill:none;stroke:#4f8ef7;stroke-width:2;stroke-miterlimit:10;stroke-dasharray:14,9999"><animate attributeName="stroke-dashoffset" from="0" to="-90" dur="4.2s" begin="1.3s" repeatCount="indefinite" calcMode="linear"/></line><line x1="181.23" y1="336.82" x2="179.6" y2="332.92" style="fill:none;stroke:#4f8ef7;stroke-width:2;stroke-miterlimit:10;stroke-dasharray:6,9999"><animate attributeName="stroke-dashoffset" from="0" to="-4" dur="2.6s" begin="0.5s" repeatCount="indefinite" calcMode="linear"/></line><line x1="177.78" y1="328.56" x2="168.49" y2="306.34" style="fill:none;stroke:#4f8ef7;stroke-width:2;stroke-miterlimit:10;stroke-dasharray:12,9999"><animate attributeName="stroke-dashoffset" from="0" to="-36" dur="3s" begin="2s" repeatCount="indefinite" calcMode="linear"/></line><line x1="341.68" y1="322.41" x2="362.12" y2="272.19" style="fill:none;stroke:#4f8ef7;stroke-width:2;stroke-miterlimit:10;stroke-dasharray:13,9999"><animate attributeName="stroke-dashoffset" from="0" to="-67" dur="3.8s" begin="0.7s" repeatCount="indefinite" calcMode="linear"/></line><line x1="364.64" y1="265.99" x2="367.17" y2="259.8" style="fill:none;stroke:#4f8ef7;stroke-width:2;stroke-miterlimit:10;stroke-dasharray:8,9999"><animate attributeName="stroke-dashoffset" from="0" to="-7" dur="2.6s" begin="1.8s" repeatCount="indefinite" calcMode="linear"/></line><line x1="374.05" y1="326.29" x2="378.51" y2="321.38" style="fill:none;stroke:#4f8ef7;stroke-width:2;stroke-miterlimit:10;stroke-dasharray:8,9999"><animate attributeName="stroke-dashoffset" from="0" to="-7" dur="2.6s" begin="3.1s" repeatCount="indefinite" calcMode="linear"/></line><line x1="382.97" y1="316.47" x2="407.29" y2="289.72" style="fill:none;stroke:#4f8ef7;stroke-width:2;stroke-miterlimit:10;stroke-dasharray:12,9999"><animate attributeName="stroke-dashoffset" from="0" to="-48" dur="3.4s" begin="2.4s" repeatCount="indefinite" calcMode="linear"/></line><line x1="178.46" y1="371.72" x2="161.84" y2="339.59" style="fill:none;stroke:#4f8ef7;stroke-width:2;stroke-miterlimit:10;stroke-dasharray:12,9999"><animate attributeName="stroke-dashoffset" from="0" to="-48" dur="3.4s" begin="1s" repeatCount="indefinite" calcMode="linear"/></line><line x1="347.45" y1="344.57" x2="365.74" y2="319.64" style="fill:none;stroke:#4f8ef7;stroke-width:2;stroke-miterlimit:10;stroke-dasharray:12,9999"><animate attributeName="stroke-dashoffset" from="0" to="-43" dur="3.4s" begin="1.6s" repeatCount="indefinite" calcMode="linear"/></line><line x1="253.26" y1="341.8" x2="248.83" y2="319.64" style="fill:none;stroke:#4f8ef7;stroke-width:2;stroke-miterlimit:10;stroke-dasharray:10,9999"><animate attributeName="stroke-dashoffset" from="0" to="-33" dur="3s" begin="0.3s" repeatCount="indefinite" calcMode="linear"/></line></g><g id="freepik--earth-globe--inject-31"><circle cx="168.48" cy="108.87" r="10.88" style="fill:#fff;stroke:#fff;stroke-miterlimit:10;stroke-width:0.5px"></circle><path d="M172.09,108.13H165a2.51,2.51,0,0,0-2.51,2.51v6a9.76,9.76,0,0,0,12.11-.09v-5.86A2.51,2.51,0,0,0,172.09,108.13Z" style="fill:#FAC1B5"></path><circle cx="168.42" cy="103.43" r="3.61" style="fill:#FAC1B5"></circle><circle cx="189" cy="303.08" r="10.88" transform="translate(-162.08 368.83) rotate(-68.66)" style="fill:#fff;stroke:#fff;stroke-miterlimit:10;stroke-width:0.5px"></circle><path d="M192.61,302.35h-7.1a2.5,2.5,0,0,0-2.5,2.5v5.95a9.75,9.75,0,0,0,12.1-.09v-5.86A2.5,2.5,0,0,0,192.61,302.35Z" style="fill:#FAC1B5"></path><path d="M188.94,301.25a3.61,3.61,0,1,0-3.61-3.61A3.61,3.61,0,0,0,188.94,301.25Z" style="fill:#FAC1B5"></path><circle cx="254.25" cy="196.67" r="108.67" transform="translate(-64.6 237.38) rotate(-45)" style="fill:#fff"></circle><g style="clip-path:url(#freepik--clip-path-2--inject-31)"><circle cx="254.25" cy="196.67" r="108.67" transform="translate(-64.6 237.38) rotate(-45)" style="opacity:0.18"></circle><path d="M254.25,243.09a108.71,108.71,0,0,1-104.14-77.55,108.67,108.67,0,1,0,208.28,0A108.72,108.72,0,0,1,254.25,243.09Z" style="fill:#fff;opacity:0.86"></path><path d="M250.34,146.36,260.66,151l2.83,4.64,4.65,1.81.51,4.9-1.8,2.84-3.61.77-7.74-3.1v-1l4.38-1.8-1.55-5.42-7-2.58-3.09-4.12Zm65,119.15-8.25-3.35L297,258.55h-8L281.55,257l-8.26,1.81-4.64.25h-2.84l-5.41,3.1-5.16,2.06-7-4.38,1.8-7.22-4.38-1.81h-5.16l-.77-2.32.51-4.64-1.8-2.58-3.61.51-1,2.58-4.38.26L225.58,240,224,233.79l3.87-7.22,7.48.51,2.06,1.81h3.1l3.87-2.32,3.35,1,4.64,8,1.81-.25-.52-5.94-1.54-3.09.51-4.9,9.54-4.13,1.29-9.54,4.13-3.35,3.35-5.93,2.58-.52,5.93-3.87.26-2.06-4.13.26-.77-2.07H272l-4.38,1,2.06-3.35,9-2.58,2.06-2.32,3.61,5.67,2.33,2.33,3.61-1-1.55-3.35-5.42-3.87-6.19-7-6.45-4.39-6.19-1-3.09-3.09-4.13-1-.51,1-.52,7.48,1,2.58L255,185.56l-5.16-4.13.78-3.61-5.42-2.58-2.32-2.83,1.29-6.45,7.48-5.42.52-6.19-2.84.26-1.81-2.32-.77-3.87-1.81-.26-1,4.13-2.83.52-1.29-9-2.07-1.29-3.61-1.55L230,143l5.15,4.91,1,4.38-9.28-7-6.45-7-.51-7-6.71-2.06L208,132.69a38.83,38.83,0,0,1-3.87,2.06,42.49,42.49,0,0,1-6.19,1l-1,4.39-5.93.26.52,2.83,9.54,1.55,4.9,5.42v9l-2.84,8,.52,8.51-7.22,12.64-1.55,18.82,2.32,10.84,3.35,8.25,3.87.52-1.29-4.13-2.06-3.1-1.29-5.67,2.32-.52,3.61,9.29L208.3,231v6.71l4.9,5.93L222,250l13.41,3.61,4.13,3.87,3.09,4.12,4.64,2.84,5.68,1.55,5.67-.26s-.26,2.58-.26,3.87-3.61,5.67-3.61,5.67l-2.83,5.16,2.06,5.67,5.67,2.33,8,8.25,3.61,1.55v3.86l.45,1.81a108.27,108.27,0,0,0,54.09-25.47l.14-1.87,7-12.64-3.35-2.32Zm26.83-101.87-2.84-4.9-3.61-5.68-1-7.73,4.64.77.26-2.58-3.36-.26,2.84-1.29,3.1-1.8v-2.58l-3.1-4.13-.66-5.55A108.77,108.77,0,0,0,210.86,97l5.95,4.21-3.61,4.65-4.9,1-.52,7-2.06.77-2.58,2.84.26,4.64,4.38.52L206,127h4.38l7.48-9.54.78-4.12,7.22-.52,1.8-3.1,7.48-.77.78-4.38,5.41-.26s3.87-2.06,4.65-2.06a31.7,31.7,0,0,1,4.38,1.28l3.87,3.1h5.41l4.65-2.84,5.93.52a6.39,6.39,0,0,0,2.84,1c1.29,0,5.15-1.81,5.15-1.81l7.48,4.65,3.1,2.32v3.87l3.87.51,1.29-2.32,3.35,1.55-.26,2.06-7.74,2.07,4.39,5.67,9.28,5.16,3.87,5.16,5.68.51,1.29-2.58,2.06-.51-6.71-5.16L305,126l3.35-1-3.1-4.38,4.39-.26,5.67,3.09,1.29,6.19,2.84,3.36,2.32,7.48,5.67,4.12v8.51l5.94,3.87-.26,2.84-.78,3.35,1.55,4.64.52,2.33,4.38.77,2.07-4.39Zm3.35-26v1.48l-1.29,4.12.77,3.61,2.84,1v4.9l-3.1-1.29L344,165.44l-3.09,5.68,2.06,7.22,3.35,3.09v13.93l3.35,10.83,3.62,8.26,5.93,1.54,2.06-5.16.84-.65a109.63,109.63,0,0,0,.84-13.51A108.14,108.14,0,0,0,345.51,137.66ZM285.93,136l-17-7.48-7.48.26-1.81,4.9-3.09-3.35-5.67,1.29-.52,8.51,4.64,3.35,3.35-4.9,3.87,3.87,8,7,1.55,7.48,6.7,8.51,10.83-1.8-.25-3.87-2.32-4.39-.52-10.31,2.58-4.39Zm13.93,5.68-3.87-1-3.35,2.84,1.8,7.48h3.36Zm24,4.9L315.08,142l-1.81-3.09-2.06.77,1.8,5.16,1.55,6.71,3.87,1.54.77-1-2.32-3.87,6.71,2.58Zm-75.31,93.1-1,1,7.74,2.32,3.09,3.61,4.91.52,1.8-2.84-5.93-1Zm23,4.9-5.42,1.55.78,2.06h6.7l1.29-2.06-2.32.26Z" style="fill:#FAC1B5"></path><g style="clip-path:url(#freepik--clip-path-3--inject-31)"><path d="M254.25,243.09a108.71,108.71,0,0,1-104.14-77.55,108.67,108.67,0,1,0,208.28,0A108.72,108.72,0,0,1,254.25,243.09Z" style="fill:#fff;opacity:0.65"></path></g><path d="M250.34,146.36,260.66,151l2.83,4.64,4.65,1.81.51,4.9-1.8,2.84-3.61.77-7.74-3.1v-1l4.38-1.8-1.55-5.42-7-2.58-3.09-4.12Zm65,119.15-8.25-3.35L297,258.55h-8L281.55,257l-8.26,1.81-4.64.25h-2.84l-5.41,3.1-5.16,2.06-7-4.38,1.8-7.22-4.38-1.81h-5.16l-.77-2.32.51-4.64-1.8-2.58-3.61.51-1,2.58-4.38.26L225.58,240,224,233.79l3.87-7.22,7.48.51,2.06,1.81h3.1l3.87-2.32,3.35,1,4.64,8,1.81-.25-.52-5.94-1.54-3.09.51-4.9,9.54-4.13,1.29-9.54,4.13-3.35,3.35-5.93,2.58-.52,5.93-3.87.26-2.06-4.13.26-.77-2.07H272l-4.38,1,2.06-3.35,9-2.58,2.06-2.32,3.61,5.67,2.33,2.33,3.61-1-1.55-3.35-5.42-3.87-6.19-7-6.45-4.39-6.19-1-3.09-3.09-4.13-1-.51,1-.52,7.48,1,2.58L255,185.56l-5.16-4.13.78-3.61-5.42-2.58-2.32-2.83,1.29-6.45,7.48-5.42.52-6.19-2.84.26-1.81-2.32-.77-3.87-1.81-.26-1,4.13-2.83.52-1.29-9-2.07-1.29-3.61-1.55L230,143l5.15,4.91,1,4.38-9.28-7-6.45-7-.51-7-6.71-2.06L208,132.69a38.83,38.83,0,0,1-3.87,2.06,42.49,42.49,0,0,1-6.19,1l-1,4.39-5.93.26.52,2.83,9.54,1.55,4.9,5.42v9l-2.84,8,.52,8.51-7.22,12.64-1.55,18.82,2.32,10.84,3.35,8.25,3.87.52-1.29-4.13-2.06-3.1-1.29-5.67,2.32-.52,3.61,9.29L208.3,231v6.71l4.9,5.93L222,250l13.41,3.61,4.13,3.87,3.09,4.12,4.64,2.84,5.68,1.55,5.67-.26s-.26,2.58-.26,3.87-3.61,5.67-3.61,5.67l-2.83,5.16,2.06,5.67,5.67,2.33,8,8.25,3.61,1.55v3.86l.45,1.81a108.27,108.27,0,0,0,54.09-25.47l.14-1.87,7-12.64-3.35-2.32Zm26.83-101.87-2.84-4.9-3.61-5.68-1-7.73,4.64.77.26-2.58-3.36-.26,2.84-1.29,3.1-1.8v-2.58l-3.1-4.13-.66-5.55A108.77,108.77,0,0,0,210.86,97l5.95,4.21-3.61,4.65-4.9,1-.52,7-2.06.77-2.58,2.84.26,4.64,4.38.52L206,127h4.38l7.48-9.54.78-4.12,7.22-.52,1.8-3.1,7.48-.77.78-4.38,5.41-.26s3.87-2.06,4.65-2.06a31.7,31.7,0,0,1,4.38,1.28l3.87,3.1h5.41l4.65-2.84,5.93.52a6.39,6.39,0,0,0,2.84,1c1.29,0,5.15-1.81,5.15-1.81l7.48,4.65,3.1,2.32v3.87l3.87.51,1.29-2.32,3.35,1.55-.26,2.06-7.74,2.07,4.39,5.67,9.28,5.16,3.87,5.16,5.68.51,1.29-2.58,2.06-.51-6.71-5.16L305,126l3.35-1-3.1-4.38,4.39-.26,5.67,3.09,1.29,6.19,2.84,3.36,2.32,7.48,5.67,4.12v8.51l5.94,3.87-.26,2.84-.78,3.35,1.55,4.64.52,2.33,4.38.77,2.07-4.39Zm3.35-26v1.48l-1.29,4.12.77,3.61,2.84,1v4.9l-3.1-1.29L344,165.44l-3.09,5.68,2.06,7.22,3.35,3.09v13.93l3.35,10.83,3.62,8.26,5.93,1.54,2.06-5.16.84-.65a109.63,109.63,0,0,0,.84-13.51A108.14,108.14,0,0,0,345.51,137.66ZM285.93,136l-17-7.48-7.48.26-1.81,4.9-3.09-3.35-5.67,1.29-.52,8.51,4.64,3.35,3.35-4.9,3.87,3.87,8,7,1.55,7.48,6.7,8.51,10.83-1.8-.25-3.87-2.32-4.39-.52-10.31,2.58-4.39Zm13.93,5.68-3.87-1-3.35,2.84,1.8,7.48h3.36Zm24,4.9L315.08,142l-1.81-3.09-2.06.77,1.8,5.16,1.55,6.71,3.87,1.54.77-1-2.32-3.87,6.71,2.58Zm-75.31,93.1-1,1,7.74,2.32,3.09,3.61,4.91.52,1.8-2.84-5.93-1Zm23,4.9-5.42,1.55.78,2.06h6.7l1.29-2.06-2.32.26Z" style="fill:none;stroke:#263238;stroke-miterlimit:10"></path></g><circle cx="254.25" cy="196.67" r="108.67" transform="translate(-64.6 237.38) rotate(-45)" style="fill:none;stroke:#263238;stroke-miterlimit:10"></circle><circle cx="388.63" cy="141.59" r="10.88" transform="translate(-17.7 64.3) rotate(-9.25)" style="fill:#fff;stroke:#fff;stroke-miterlimit:10;stroke-width:0.5px"></circle><path d="M392.24,140.85h-7.1a2.5,2.5,0,0,0-2.5,2.51v5.95a9.75,9.75,0,0,0,12.1-.09v-5.86A2.5,2.5,0,0,0,392.24,140.85Z" style="fill:#FAC1B5"></path><path d="M388.57,139.75a3.61,3.61,0,1,0-3.61-3.61A3.61,3.61,0,0,0,388.57,139.75Z" style="fill:#FAC1B5"></path><circle cx="311.96" cy="97.92" r="10.88" style="fill:#fff;stroke:#fff;stroke-miterlimit:10;stroke-width:0.5px"></circle><path d="M315.56,97.18h-7.09A2.51,2.51,0,0,0,306,99.69v6a9.76,9.76,0,0,0,12.11-.09V99.69A2.51,2.51,0,0,0,315.56,97.18Z" style="fill:#FAC1B5"></path><circle cx="311.89" cy="92.47" r="3.61" style="fill:#FAC1B5"></circle><circle cx="115.13" cy="164.09" r="10.88" transform="translate(-24.88 20.64) rotate(-9.25)" style="fill:#fff;stroke:#fff;stroke-miterlimit:10;stroke-width:0.5px"></circle><path d="M118.74,163.35h-7.1a2.5,2.5,0,0,0-2.5,2.51v5.95a9.75,9.75,0,0,0,12.1-.09v-5.86A2.5,2.5,0,0,0,118.74,163.35Z" style="fill:#FAC1B5"></path><path d="M115.07,162.25a3.61,3.61,0,1,0-3.61-3.61A3.61,3.61,0,0,0,115.07,162.25Z" style="fill:#FAC1B5"></path><circle cx="122.13" cy="232.59" r="10.88" transform="translate(-35.79 22.65) rotate(-9.25)" style="fill:#fff;stroke:#fff;stroke-miterlimit:10;stroke-width:0.5px"></circle><path d="M125.74,231.85h-7.1a2.5,2.5,0,0,0-2.5,2.51v5.95a9.75,9.75,0,0,0,12.1-.09v-5.86A2.5,2.5,0,0,0,125.74,231.85Z" style="fill:#FAC1B5"></path><path d="M122.07,230.75a3.61,3.61,0,1,0-3.61-3.61A3.61,3.61,0,0,0,122.07,230.75Z" style="fill:#FAC1B5"></path><circle cx="166.5" cy="177.58" r="10.88" transform="translate(-59.73 267.45) rotate(-68.51)" style="fill:#fff;stroke:#fff;stroke-miterlimit:10;stroke-width:0.5px"></circle><path d="M170.11,176.85H163a2.5,2.5,0,0,0-2.5,2.5v6a9.75,9.75,0,0,0,12.1-.09v-5.86A2.5,2.5,0,0,0,170.11,176.85Z" style="fill:#FAC1B5"></path><path d="M166.44,175.75a3.61,3.61,0,1,0-3.61-3.61A3.61,3.61,0,0,0,166.44,175.75Z" style="fill:#FAC1B5"></path><circle cx="238.27" cy="284.33" r="10.88" style="fill:#fff;stroke:#fff;stroke-miterlimit:10;stroke-width:0.5px"></circle><path d="M241.88,283.6h-7.09a2.51,2.51,0,0,0-2.51,2.51v5.95a9.76,9.76,0,0,0,12.11-.09v-5.86A2.51,2.51,0,0,0,241.88,283.6Z" style="fill:#FAC1B5"></path><circle cx="238.21" cy="278.89" r="3.61" style="fill:#FAC1B5"></circle><circle cx="316.5" cy="305.25" r="10.88" style="fill:#fff;stroke:#fff;stroke-miterlimit:10;stroke-width:0.5px"></circle><path d="M320.1,304.52H313a2.51,2.51,0,0,0-2.51,2.5v6a9.76,9.76,0,0,0,12.11-.09V307A2.5,2.5,0,0,0,320.1,304.52Z" style="fill:#FAC1B5"></path><circle cx="316.43" cy="299.81" r="3.61" style="fill:#FAC1B5"></circle><circle cx="371.5" cy="242.58" r="10.88" transform="translate(15.66 507.59) rotate(-69.82)" style="fill:#fff;stroke:#fff;stroke-miterlimit:10;stroke-width:0.5px"></circle><path d="M375.11,241.85H368a2.5,2.5,0,0,0-2.5,2.5v6a9.75,9.75,0,0,0,12.1-.09v-5.86A2.5,2.5,0,0,0,375.11,241.85Z" style="fill:#FAC1B5"></path><path d="M371.44,240.75a3.61,3.61,0,1,0-3.61-3.61A3.61,3.61,0,0,0,371.44,240.75Z" style="fill:#FAC1B5"></path><path id="op1" d="M349.86,144.64c15.36,12.45,24.47,28,24.47,44.78,0,41-54.17,74.26-121,74.26s-121-33.25-121-74.26c0-17.94,10.37-34.39,27.63-47.23" style="fill:none;stroke:rgba(79,142,247,0.8);stroke-miterlimit:10;stroke-width:0.5px"></path><path id="op2" d="M184,113.75C194.89,95.9,210.2,84,228.34,81.35c42.62-6.14,84.73,41.47,94.07,106.34s-17.63,122.43-60.24,128.57c-19.4,2.79-38.7-5.55-54.85-21.59" style="fill:none;stroke:rgba(79,142,247,0.8);stroke-miterlimit:10;stroke-width:0.5px"></path><path id="oe1" d="M 194.62,207.7 A 49.19,121.67 0 1,0 293,207.7 A 49.19,121.67 0 1,0 194.62,207.7 Z" transform="translate(-60.53 307.49) rotate(-58.58)" style="fill:none;stroke:rgba(79,142,247,0.8);stroke-miterlimit:10;stroke-width:0.5px"></path><path id="oe2" d="M 127.86,202.26 A 124.86,49.19 0 1,0 377.58,202.26 A 124.86,49.19 0 1,0 127.86,202.26 Z" transform="translate(-68.38 161.4) rotate(-31.42)" style="fill:none;stroke:rgba(79,142,247,0.8);stroke-miterlimit:10;stroke-width:0.5px"></path><path d="M304.07,128a2,2,0,1,0-2,2A2,2,0,0,0,304.07,128Z" style="fill:#fff;stroke:#fff;stroke-miterlimit:10;stroke-width:0.5px"></path></g><g id="orbital-dots"><circle r="3" fill="#0d9488"><animateMotion dur="10s" repeatCount="indefinite" calcMode="linear"><mpath xlink:href="#op1"/></animateMotion></circle><circle r="3" fill="#0d9488"><animateMotion dur="10s" begin="-5s" repeatCount="indefinite" calcMode="linear"><mpath xlink:href="#op1"/></animateMotion></circle><circle r="3" fill="#0d9488"><animateMotion dur="14s" repeatCount="indefinite" calcMode="linear"><mpath xlink:href="#op2"/></animateMotion></circle><circle r="3" fill="#0d9488"><animateMotion dur="14s" begin="-7s" repeatCount="indefinite" calcMode="linear"><mpath xlink:href="#op2"/></animateMotion></circle></g></svg>